<svg id="visual" viewBox="0 0 900 600" width="900" height="600" xmlns="http://www.w3.org/2000/svg" xmlns:xlink="http://www.w3.org/1999/xlink" version="1.1"><path d="M0 380L21.5 398.7C43 417.3 86 454.7 128.8 463.5C171.7 472.3 214.3 452.7 257.2 453.8C300 455 343 477 385.8 468.8C428.7 460.7 471.3 422.3 514.2 423.2C557 424 600 464 642.8 476.3C685.7 488.7 728.3 473.3 771.2 474.3C814 475.3 857 492.7 878.5 501.3L900 510L900 601L878.5 601C857 601 814 601 771.2 601C728.3 601 685.7 601 642.8 601C600 601 557 601 514.2 601C471.3 601 428.7 601 385.8 601C343 601 300 601 257.2 601C214.3 601 171.7 601 128.8 601C86 601 43 601 21.5 601L0 601Z" fill="#0066FF" stroke-linecap="round" stroke-linejoin="miter"></path></svg>