<?xml version="1.0" standalone="no"?>
<!DOCTYPE svg PUBLIC "-//W3C//DTD SVG 20010904//EN"
 "http://www.w3.org/TR/2001/REC-SVG-20010904/DTD/svg10.dtd">
<svg version="1.0" xmlns="http://www.w3.org/2000/svg"
 width="705.000000pt" height="664.000000pt" viewBox="0 0 705.000000 664.000000"
 preserveAspectRatio="xMidYMid meet">

<g transform="translate(0.000000,664.000000) scale(0.100000,-0.100000)"
fill="#000000" stroke="none">
<path d="M3250 6525 c-164 -20 -393 -64 -523 -101 -429 -123 -889 -362 -1206
-629 -149 -125 -382 -375 -509 -547 -339 -456 -547 -953 -627 -1498 -22 -144
-31 -559 -16 -733 20 -242 66 -464 146 -702 51 -154 181 -455 197 -455 4 0 21
21 39 48 94 138 348 454 618 767 264 306 514 567 720 751 264 237 597 412 816
429 71 6 85 4 125 -17 38 -19 48 -31 63 -73 89 -253 -279 -786 -770 -1113
-113 -76 -312 -187 -320 -179 -7 7 27 74 68 135 16 24 29 45 29 48 0 18 -188
-154 -391 -356 -259 -258 -453 -469 -637 -690 l-121 -144 17 -29 c24 -40 238
-326 270 -359 14 -15 24 -30 21 -32 -2 -2 -42 -36 -89 -76 -133 -113 -418
-382 -493 -465 -129 -142 -130 -144 -27 -73 381 262 812 480 1250 630 427 146
795 226 1340 293 312 37 470 47 895 54 l390 6 5 127 5 128 45 -30 c48 -32 61
-35 158 -45 l62 -7 0 -597 0 -598 257 -6 c141 -4 403 -7 582 -6 l326 1 -160
34 c-460 98 -679 139 -897 169 l-48 6 0 409 0 409 33 -4 c17 -3 88 -9 157 -15
265 -23 619 -76 842 -126 59 -13 111 -24 117 -24 5 0 49 48 96 108 337 419
548 904 640 1472 36 224 47 658 20 875 -54 450 -219 938 -435 1285 -83 132
-158 240 -168 240 -4 0 -5 -43 -4 -95 2 -52 2 -95 -1 -95 -2 0 -34 13 -70 30
-75 34 -240 82 -361 105 -265 51 -1143 82 -1571 56 -437 -27 -707 -76 -891
-162 -34 -16 -64 -29 -67 -29 -4 0 -7 131 -7 291 l0 290 73 34 c135 62 378
120 619 149 254 31 455 39 882 33 439 -5 577 -15 859 -61 l138 -23 -23 23
c-13 12 -74 60 -136 106 -484 362 -1132 604 -1757 658 -160 13 -465 11 -595
-5z m-1110 -739 c262 -47 502 -251 584 -496 64 -195 59 -388 -16 -569 -138
-331 -463 -521 -823 -480 -413 46 -723 437 -675 847 56 466 474 780 930 698z
m2536 -685 l123 -59 3 -204 c2 -111 3 -620 2 -1130 -1 -511 3 -929 7 -929 47
-7 44 -93 49 1111 l5 1115 140 7 c307 15 487 31 625 55 261 46 270 45 270 -40
0 -29 -7 -108 -15 -177 -20 -167 -20 -165 5 -140 22 22 29 24 48 12 10 -7 9
-33 -8 -133 -11 -68 -20 -136 -20 -152 0 -26 -14 -59 -35 -82 -14 -15 -35 -7
-35 13 0 14 -2 15 -15 1 -15 -15 -52 -246 -41 -257 4 -3 6 4 6 14 0 40 45 59
70 29 10 -12 10 -25 -3 -68 -9 -28 -18 -74 -22 -102 -3 -27 -16 -86 -27 -130
-29 -111 -45 -128 -72 -78 l-14 28 -6 -35 c-22 -143 -27 -172 -32 -185 -5 -13
-2 -13 24 2 25 14 32 15 46 4 9 -7 16 -20 16 -29 0 -34 11 0 34 104 13 60 22
121 19 135 -3 15 0 30 6 33 17 11 50 -12 57 -41 7 -25 -19 -192 -36 -238 -12
-32 -69 -63 -81 -44 -9 16 -6 26 -51 -136 -30 -109 -35 -120 -57 -123 -15 -2
-30 3 -37 13 -16 21 -17 17 -48 -92 -31 -110 -31 -108 -6 -83 24 24 43 25 59
6 10 -12 6 -29 -17 -83 -16 -37 -37 -89 -46 -114 -22 -62 -50 -87 -77 -71 -17
11 -23 9 -43 -15 l-24 -28 46 -3 c65 -5 85 3 102 40 8 18 20 34 26 35 21 7 46
-28 40 -53 l-6 -24 325 0 325 0 0 -65 0 -65 -58 0 -58 0 -37 -147 c-20 -82
-52 -206 -71 -278 -18 -71 -37 -149 -41 -173 l-7 -42 111 0 110 0 -10 -29 c-6
-15 -19 -38 -31 -50 -19 -21 -28 -22 -115 -20 l-96 3 -21 -85 -21 -84 -1261
-3 -1261 -2 -23 77 c-12 43 -27 84 -33 90 -6 9 -40 13 -101 13 l-92 0 -17 35
c-9 20 -17 40 -17 45 0 5 46 11 103 12 78 2 101 6 99 16 -1 7 -37 150 -79 318
l-76 304 -47 0 c-45 0 -48 2 -54 31 -3 17 -6 47 -6 65 l0 34 334 0 335 0 -1
30 c-2 61 49 69 68 10 11 -35 12 -35 74 -38 l63 -3 -25 32 c-23 31 -59 55 -44
30 13 -20 -25 -25 -44 -5 -34 36 -98 228 -86 259 8 22 43 18 56 -6 23 -41 18
-11 -14 104 -36 127 -46 148 -46 99 0 -29 -3 -32 -30 -32 -33 0 -34 3 -66 158
-18 90 -19 93 -42 87 -35 -9 -70 19 -81 62 -5 21 -15 75 -22 120 -14 95 -6
128 37 139 22 6 25 11 21 33 -3 14 -13 70 -23 124 -13 75 -21 97 -31 92 -21
-7 -73 23 -82 49 -14 36 -34 213 -27 240 3 14 18 33 32 43 33 21 42 8 42 -61
1 -78 13 -200 22 -211 4 -5 10 -19 13 -30 3 -12 5 -4 6 17 1 27 7 40 23 49 18
10 24 8 37 -10 17 -22 33 -20 26 2 -2 7 -9 55 -15 107 -6 52 -13 107 -16 123
-5 22 -3 27 14 27 36 0 59 -44 72 -137 20 -137 18 -162 -9 -184 -13 -11 -31
-17 -39 -14 -12 4 -14 -2 -8 -32 3 -21 14 -93 23 -161 14 -104 15 -125 3 -132
-19 -12 -35 -3 -47 28 -10 26 -11 25 -12 -15 -1 -45 33 -205 49 -232 8 -13 10
-10 8 13 -4 40 24 57 51 32 21 -19 21 -19 21 0 0 10 -9 72 -21 137 -12 65 -19
121 -16 124 11 10 46 -9 62 -34 24 -36 57 -226 45 -257 -8 -23 -50 -56 -50
-40 0 4 -3 5 -6 2 -3 -4 2 -45 12 -91 17 -84 18 -86 50 -92 58 -10 98 -90 111
-220 4 -50 2 -63 -12 -75 -15 -13 -19 -12 -31 5 -19 25 -18 16 8 -77 19 -70
24 -79 41 -74 38 10 85 -20 109 -68 l22 -46 61 0 61 0 -4 34 c-3 28 0 35 18
41 27 9 46 -7 54 -45 5 -29 7 -30 66 -30 33 0 60 3 60 6 0 3 -10 19 -21 36
-21 29 -21 29 -36 9 -22 -32 -50 -26 -62 12 -22 67 -61 249 -56 258 10 15 53
10 65 -8 10 -15 11 -14 6 7 -3 14 -11 61 -17 105 -7 44 -16 84 -21 89 -15 18
-9 46 10 46 49 0 92 -103 92 -221 0 -43 -5 -60 -20 -74 -19 -17 -20 -17 -29 6
-14 35 -12 15 7 -76 l17 -80 37 -3 c40 -3 83 -43 94 -88 3 -13 11 -24 17 -24
7 0 8 155 4 512 -4 281 -7 760 -7 1063 l0 553 -127 6 c-71 4 -150 9 -177 12
l-48 6 6 -38 c3 -22 7 -67 9 -101 2 -53 -1 -66 -20 -85 -12 -12 -26 -19 -29
-15 -4 4 -11 60 -16 124 -5 74 -13 120 -21 125 -6 4 -32 8 -56 8 l-44 0 6 -99
c4 -54 10 -112 13 -130 5 -23 3 -31 -8 -31 -46 0 -67 58 -68 192 0 88 7 82
-105 93 -33 3 -89 12 -125 19 -36 8 -66 13 -67 12 -1 -1 10 -70 24 -153 14
-83 23 -162 19 -176 -7 -29 -56 -56 -56 -30 0 9 -2 14 -6 11 -3 -3 2 -59 10
-124 9 -65 16 -135 16 -156 0 -33 -3 -38 -23 -38 -28 0 -40 38 -57 181 -12
103 -28 173 -29 132 -2 -38 -53 -27 -75 16 -12 23 -32 147 -38 243 -3 47 12
64 41 49 24 -13 26 -22 41 -151 6 -52 14 -104 17 -115 6 -19 6 -19 14 3 5 12
15 25 24 28 20 8 45 -13 45 -37 0 -11 5 -19 10 -19 14 0 13 3 -15 180 -25 158
-31 245 -17 254 4 2 39 -2 77 -10 185 -39 464 -69 755 -82 l155 -7 6 -110 c4
-60 7 -493 8 -961 0 -468 4 -919 8 -1002 6 -151 6 -152 30 -152 l23 0 0 1190
c0 655 3 1190 6 1190 3 0 62 -27 130 -59z m1383 -145 c9 -11 8 -35 -3 -103 -9
-48 -16 -103 -16 -121 0 -54 -26 -92 -64 -92 -13 0 -16 5 -12 16 4 9 15 77 26
151 21 153 38 187 69 149z m-2079 -200 c4 -13 14 -78 21 -145 9 -96 9 -124 -1
-136 -34 -41 -49 0 -60 157 -5 73 -6 136 -4 140 10 16 35 7 44 -16z m-41 -313
c22 -163 19 -154 46 -141 44 20 51 7 59 -102 5 -72 4 -106 -5 -116 -29 -35
-55 -1 -63 85 -6 55 -10 69 -22 64 -24 -9 -63 25 -73 64 -5 21 -12 70 -15 109
-6 62 -4 73 14 97 36 46 47 35 59 -60z m136 64 c31 -26 44 -79 45 -179 0 -70
-14 -98 -49 -98 -16 0 -19 15 -25 128 -3 70 -9 137 -12 150 -8 28 8 28 41 -1z
m1895 -117 c11 -11 20 -32 20 -47 0 -36 -35 -227 -43 -240 -9 -14 -65 -34 -71
-25 -2 4 1 34 8 67 26 119 36 182 36 216 0 54 16 63 50 29z m-1838 -281 c13
-17 20 -51 24 -114 6 -78 4 -93 -10 -108 -27 -26 -45 -21 -50 16 -6 37 -26
220 -26 236 0 17 42 -3 62 -30z m-153 -56 c7 -49 16 -109 20 -135 8 -48 8 -48
-20 -48 -39 0 -55 29 -68 122 -11 80 -8 101 17 131 28 32 38 19 51 -70z m90
-107 c19 -22 27 -186 11 -196 -31 -19 -47 7 -60 101 -10 76 -10 93 1 100 20
13 35 11 48 -5z m-2841 -52 c15 -10 22 -25 22 -49 0 -43 -22 -65 -65 -65 -58
0 -86 69 -45 110 24 24 57 26 88 4z m2792 -109 c0 -60 23 -235 30 -235 4 0 10
9 13 20 3 13 14 20 31 20 21 0 27 -7 35 -37 13 -50 41 -276 35 -285 -3 -5 -16
-8 -29 -8 -27 0 -27 0 -50 158 -15 97 -19 110 -31 95 -12 -17 -15 -17 -41 -3
-40 22 -51 52 -59 165 -6 100 -6 100 21 127 33 33 45 28 45 -17z m139 16 c25
-25 38 -73 47 -174 5 -67 4 -81 -11 -97 -40 -44 -48 -28 -65 120 -5 52 -13
112 -16 133 -5 30 -3 37 10 37 9 0 25 -9 35 -19z m2280 -417 c18 -16 19 -68 1
-88 -19 -24 -76 -20 -94 6 -23 33 -19 64 11 87 27 22 56 21 82 -5z m-2334
-161 c10 -65 24 -130 31 -145 21 -40 18 -58 -9 -58 -40 0 -66 40 -82 124 -21
107 -19 152 5 176 11 11 24 20 29 20 4 0 16 -53 26 -117z m-420 -33 c14 -58
33 -116 42 -129 13 -21 13 -25 -1 -39 -12 -13 -20 -13 -40 -4 -33 15 -52 54
-76 157 -17 68 -18 89 -9 107 32 62 50 42 84 -92z m2081 104 c16 -24 16 -31
-9 -132 -29 -118 -48 -145 -94 -140 l-30 3 33 85 c18 47 38 113 44 148 13 68
29 78 56 36z m-4996 -4 c24 -24 25 -43 4 -64 -18 -19 -55 -21 -72 -4 -18 18
-15 65 6 77 25 15 40 13 62 -9z m834 -12 c8 -14 -13 -40 -130 -160 -173 -178
-327 -350 -481 -538 -104 -127 -123 -145 -149 -145 -53 0 -41 31 61 160 147
184 335 395 498 558 152 152 175 166 201 125z m1084 -1173 c2 -14 -39 -61
-145 -166 -82 -80 -154 -148 -160 -153 -18 -10 -53 11 -53 32 0 10 67 85 150
166 129 128 153 147 177 144 19 -2 29 -9 31 -23z m-680 -507 c7 -7 12 -17 12
-24 0 -20 -198 -214 -219 -214 -18 0 -31 18 -31 42 0 18 192 208 210 208 9 0
21 -5 28 -12z"/>
<path d="M5795 4999 c-16 -5 -68 -14 -115 -19 -141 -18 -126 -4 -132 -128 -3
-60 -11 -118 -17 -130 -10 -20 -47 -39 -57 -29 -2 2 1 59 7 126 7 66 10 124 6
127 -3 3 -28 3 -55 -1 l-50 -7 -7 -100 c-4 -55 -10 -112 -14 -126 l-7 -27 -28
28 c-26 26 -27 31 -21 95 3 37 9 80 12 96 l5 29 -63 -7 c-35 -3 -124 -9 -196
-13 l-133 -6 0 -1064 c0 -1033 1 -1063 19 -1063 11 0 23 12 31 30 23 56 49 80
85 80 31 0 35 3 45 40 5 22 15 58 21 81 6 23 8 44 5 47 -3 3 -6 -3 -6 -12 0
-23 -19 -16 -42 15 -16 21 -17 32 -7 94 19 129 48 185 95 185 23 0 27 11 49
131 6 33 4 37 -19 43 -42 10 -50 42 -38 140 6 47 18 98 26 114 14 28 61 60 72
50 3 -3 -1 -39 -9 -79 -8 -41 -18 -99 -22 -129 -6 -53 -6 -54 13 -37 23 21 40
22 63 1 17 -15 18 -15 23 7 12 50 26 156 26 192 0 29 4 37 18 37 11 0 27 -9
37 -20 17 -19 17 -27 6 -103 -22 -147 -30 -167 -78 -181 -18 -6 -22 -3 -25 21
-2 18 -10 -5 -21 -62 -28 -142 -49 -200 -72 -200 -12 0 -21 9 -25 25 l-6 24
-11 -29 c-11 -28 -44 -191 -42 -211 0 -5 4 1 9 14 10 23 53 31 65 12 9 -14
-32 -176 -58 -230 -20 -42 -25 -45 -61 -45 -31 0 -40 -4 -47 -22 -8 -22 -6
-23 51 -23 55 0 60 2 66 24 8 32 37 58 57 51 19 -8 27 -37 15 -59 -8 -14 -2
-16 51 -16 58 0 61 1 76 34 23 47 55 74 94 78 31 3 35 7 57 68 13 36 24 66 24
66 0 1 -11 5 -25 8 -36 9 -40 44 -15 139 27 100 53 145 88 153 15 3 32 7 37 9
10 2 45 132 45 161 0 7 -9 14 -20 17 -32 8 -41 49 -30 127 22 158 46 210 96
210 26 0 28 4 48 128 20 115 20 112 -4 112 -11 0 -27 11 -36 25 -14 22 -14 33
1 137 18 128 35 163 81 163 28 1 29 2 41 85 6 47 14 102 17 123 6 35 5 37 -14
25 -16 -11 -23 -10 -37 5 -23 23 -21 88 7 221 21 105 24 137 13 135 -5 0 -21
-5 -38 -10z m-354 -317 c-5 -130 -21 -196 -47 -200 -31 -4 -36 38 -19 155 21
142 22 145 48 141 21 -3 22 -6 18 -96z m-91 -164 c0 -7 -4 -40 -9 -73 -5 -33
-12 -85 -16 -115 -6 -53 -6 -54 13 -37 10 9 26 17 34 17 31 0 36 -22 23 -115
-18 -126 -26 -140 -64 -116 -11 7 -13 28 -9 98 3 48 3 80 1 71 -6 -25 -19 -22
-49 8 -25 24 -26 29 -19 97 9 101 22 144 48 162 26 18 47 19 47 3z m144 -14
c27 -27 11 -210 -21 -246 -19 -21 -53 -24 -53 -5 0 18 19 186 26 230 6 40 22
47 48 21z m-189 -416 c-4 -35 -11 -85 -16 -111 -5 -26 -9 -60 -8 -75 1 -28 3
-24 13 19 6 29 27 42 52 32 12 -4 14 -16 9 -62 -9 -79 -23 -129 -38 -134 -27
-9 -37 6 -37 57 0 46 -3 53 -30 68 -29 16 -30 20 -30 85 0 37 5 85 10 105 10
34 50 78 72 78 5 0 6 -27 3 -62z m144 36 c22 -16 23 -21 19 -104 -7 -111 -22
-144 -67 -148 -32 -3 -33 -2 -26 25 11 45 25 124 31 186 4 31 10 57 13 57 4 0
17 -7 30 -16z m-114 -815 c18 -19 18 -24 2 -119 -23 -133 -29 -146 -72 -160
-45 -15 -53 -8 -36 33 17 42 51 194 51 227 0 45 25 54 55 19z"/>
<path d="M3691 3544 c0 -11 3 -14 6 -6 3 7 2 16 -1 19 -3 4 -6 -2 -5 -13z"/>
<path d="M4020 2666 c26 -69 41 -174 73 -526 l12 -125 149 -2 c81 -1 155 1
162 4 8 3 14 16 14 28 0 17 -7 25 -27 30 -32 7 -288 209 -288 228 0 7 17 13
42 15 37 3 48 -2 105 -50 102 -86 149 -121 154 -115 3 3 -22 34 -55 70 -34 35
-61 72 -61 81 0 25 54 20 88 -9 17 -14 33 -25 36 -25 8 0 8 74 0 120 -4 25
-14 41 -33 51 -24 14 -75 96 -100 162 -10 26 -9 27 24 27 31 0 36 -5 67 -62
l33 -62 3 62 3 62 39 0 40 0 2 -307 3 -308 23 -3 22 -3 0 316 0 316 126 -3
126 -3 -2 -312 -1 -313 30 0 31 0 2 313 3 312 40 0 40 0 -1 -67 c-1 -74 -1
-74 50 15 26 44 31 47 68 47 22 0 38 -3 36 -7 -53 -118 -109 -193 -143 -193
-7 0 -16 -7 -19 -16 -10 -25 -7 -154 3 -154 5 0 21 14 34 30 21 24 33 30 66
30 23 0 41 -4 41 -10 0 -5 -32 -44 -71 -85 -39 -41 -67 -75 -61 -75 12 0 154
105 195 145 26 25 33 27 83 20 l55 -7 -40 -31 c-201 -160 -261 -205 -285 -211
-21 -5 -27 -12 -24 -29 3 -22 5 -22 162 -22 l160 0 23 160 c12 88 22 170 23
183 0 22 -1 22 -149 22 l-149 0 14 30 c10 20 23 30 38 30 17 0 36 22 84 95 61
94 62 95 102 95 22 0 40 -3 40 -6 0 -3 -23 -38 -51 -76 -28 -38 -49 -71 -47
-73 2 -2 27 14 56 37 34 25 60 38 72 35 16 -4 23 7 44 69 l25 74 -684 0 -685
0 10 -24z m215 -129 c33 -48 74 -96 90 -106 17 -10 36 -25 44 -35 13 -15 5
-16 -119 -14 -115 3 -134 5 -144 21 -9 14 -7 20 7 28 18 11 18 12 -2 33 -11
12 -24 36 -27 54 -9 46 16 42 66 -10 54 -57 50 -39 -10 42 -27 37 -50 71 -50
74 0 4 19 6 43 4 41 -3 44 -6 102 -91z"/>
<path d="M5447 2664 c-4 -4 -7 -25 -7 -48 l0 -40 28 28 c16 15 46 29 67 33
l37 6 -16 -25 c-9 -14 -43 -50 -75 -79 l-57 -54 -23 -167 c-13 -91 -29 -196
-35 -232 -7 -36 -11 -68 -8 -71 3 -3 121 -5 263 -5 191 0 260 3 265 12 9 13
83 296 84 316 0 9 -57 12 -251 12 l-251 0 7 33 c15 73 -11 67 271 67 195 0
256 3 258 13 2 6 17 53 33 102 l28 90 -285 0 c-157 0 -294 4 -305 8 -11 5 -24
5 -28 1z"/>
<path d="M3541 2653 c-235 -3 -253 -5 -246 -21 4 -9 40 -148 80 -308 40 -160
75 -297 79 -303 6 -8 78 -10 269 -7 l262 5 -2 28 c0 15 -9 116 -19 223 -16
174 -20 197 -40 215 -41 39 -114 129 -114 142 0 23 60 15 94 -14 l31 -26 3 27
c2 15 1 30 -1 32 -8 8 -136 11 -396 7z m303 -213 c22 -8 26 -16 26 -50 l0 -40
-234 0 -234 0 -16 47 c-9 26 -16 48 -16 50 0 8 452 2 474 -7z"/>
<path d="M5297 2480 l-27 -30 24 0 c18 0 25 7 29 28 3 15 4 28 3 30 -2 1 -15
-11 -29 -28z"/>
<path d="M5340 1913 c-1 -5 -5 -27 -9 -50 l-8 -43 217 0 c119 0 238 -3 263 -6
l47 -7 20 47 c11 26 20 52 20 57 0 11 -550 13 -550 2z"/>
<path d="M2055 3071 c-178 -166 -542 -536 -668 -681 -282 -321 -421 -498 -415
-527 2 -10 13 -19 24 -21 16 -2 36 16 80 70 32 40 95 114 139 163 44 50 137
153 205 230 157 177 540 565 733 742 81 75 147 143 147 152 0 23 -20 41 -44
41 -13 0 -91 -66 -201 -169z"/>
<path d="M324 1382 c-6 -4 -46 -56 -87 -115 -73 -105 -86 -142 -47 -135 22 4
173 226 166 245 -6 15 -15 16 -32 5z"/>
<path d="M3745 998 c51 -38 175 -160 227 -226 55 -69 135 -215 120 -220 -5 -1
-52 26 -104 61 -118 79 -310 174 -443 220 -111 38 -203 62 -211 54 -3 -2 21
-19 53 -37 32 -18 92 -59 133 -90 78 -60 226 -207 218 -216 -3 -3 -85 4 -182
15 -279 32 -715 47 -942 32 -199 -12 -449 -44 -424 -54 8 -3 44 -8 80 -11 83
-7 205 -38 281 -72 110 -50 101 -54 -108 -47 -281 8 -553 -17 -877 -82 -177
-35 -376 -92 -376 -107 0 -4 665 -7 1478 -7 1272 1 1466 3 1397 15 -123 21
-364 42 -655 59 -146 9 -293 20 -327 26 -112 20 -123 55 -21 70 29 4 374 8
766 8 l713 1 -3 98 -3 97 -64 3 c-64 3 -64 3 -140 73 -131 121 -339 250 -530
329 -87 35 -96 37 -56 8z"/>
</g>
</svg>
